<svg xmlns="http://www.w3.org/2000/svg" xmlns:xlink="http://www.w3.org/1999/xlink" width="500" zoomAndPan="magnify" viewBox="0 0 375 374.999991" height="500" preserveAspectRatio="xMidYMid meet" version="1.0"><defs><g/><clipPath id="aa3e7592c1"><path d="M 152 118.335938 L 223.589844 118.335938 L 223.589844 190 L 152 190 Z M 152 118.335938 " clip-rule="nonzero"/></clipPath><clipPath id="3f4fbbc653"><path d="M 187 120 L 223.589844 120 L 223.589844 156 L 187 156 Z M 187 120 " clip-rule="nonzero"/></clipPath></defs><g clip-path="url(#aa3e7592c1)"><path fill="#eadf87" d="M 223.273438 166.367188 C 217.703125 180.34375 203.8125 190.113281 187.726562 189.566406 C 168.511719 188.902344 152.847656 173.242188 152.1875 154.019531 C 151.636719 137.933594 161.40625 124.046875 175.382812 118.476562 C 171.714844 127.679688 171.636719 138.730469 176.949219 149.820312 C 180.085938 156.355469 185.390625 161.664062 191.925781 164.800781 C 203.019531 170.117188 214.066406 170.035156 223.273438 166.367188 " fill-opacity="1" fill-rule="nonzero"/></g><g clip-path="url(#3f4fbbc653)"><path fill="#eadf87" d="M 216.328125 120.824219 L 214.277344 133.296875 L 223.390625 142.054688 L 210.894531 143.953125 L 205.382812 155.328125 L 199.710938 144.03125 L 187.191406 142.304688 L 196.175781 133.417969 L 193.957031 120.976562 L 205.183594 126.78125 L 216.328125 120.824219 " fill-opacity="1" fill-rule="nonzero"/></g><g fill="#eadf87" fill-opacity="1"><g transform="translate(140.355464, 229.962172)"><g><path d="M 13.53125 0 L 13.4375 -1.703125 L 15.546875 -2.25 C 15.597656 -2.394531 15.640625 -2.710938 15.671875 -3.203125 C 15.703125 -3.691406 15.726562 -4.3125 15.75 -5.0625 C 15.78125 -5.8125 15.796875 -6.628906 15.796875 -7.515625 L 15.796875 -12.515625 C 15.796875 -13.441406 15.78125 -14.285156 15.75 -15.046875 C 15.726562 -15.816406 15.703125 -16.445312 15.671875 -16.9375 C 15.640625 -17.425781 15.597656 -17.71875 15.546875 -17.8125 L 13.4375 -18.359375 L 13.53125 -20.0625 L 22.734375 -20.0625 L 22.828125 -18.359375 L 20.671875 -17.8125 C 20.628906 -17.71875 20.59375 -17.398438 20.5625 -16.859375 C 20.53125 -16.328125 20.492188 -15.671875 20.453125 -14.890625 C 20.421875 -14.117188 20.40625 -13.328125 20.40625 -12.515625 L 20.40625 -7.515625 C 20.40625 -6.742188 20.421875 -5.96875 20.453125 -5.1875 C 20.492188 -4.414062 20.53125 -3.769531 20.5625 -3.25 C 20.59375 -2.726562 20.628906 -2.394531 20.671875 -2.25 L 22.828125 -1.703125 L 22.734375 0 Z M 1.296875 0 L 1.203125 -1.703125 L 3.34375 -2.25 C 3.394531 -2.363281 3.4375 -2.660156 3.46875 -3.140625 C 3.5 -3.617188 3.523438 -4.238281 3.546875 -5 C 3.578125 -5.769531 3.59375 -6.609375 3.59375 -7.515625 L 3.59375 -12.515625 C 3.59375 -13.472656 3.578125 -14.332031 3.546875 -15.09375 C 3.523438 -15.851562 3.5 -16.476562 3.46875 -16.96875 C 3.4375 -17.457031 3.394531 -17.738281 3.34375 -17.8125 L 1.203125 -18.359375 L 1.296875 -20.0625 L 10.421875 -20.0625 L 10.53125 -18.359375 L 8.40625 -17.8125 C 8.363281 -17.71875 8.320312 -17.425781 8.28125 -16.9375 C 8.25 -16.445312 8.226562 -15.816406 8.21875 -15.046875 C 8.207031 -14.285156 8.203125 -13.441406 8.203125 -12.515625 L 8.203125 -7.515625 C 8.203125 -6.628906 8.207031 -5.8125 8.21875 -5.0625 C 8.226562 -4.3125 8.25 -3.691406 8.28125 -3.203125 C 8.320312 -2.710938 8.363281 -2.394531 8.40625 -2.25 L 10.53125 -1.703125 L 10.421875 0 Z M 7.453125 -8.953125 L 7.453125 -11.546875 C 7.992188 -11.484375 8.617188 -11.4375 9.328125 -11.40625 C 10.035156 -11.382812 10.925781 -11.375 12 -11.375 C 13.070312 -11.375 13.957031 -11.382812 14.65625 -11.40625 C 15.363281 -11.4375 15.992188 -11.484375 16.546875 -11.546875 L 16.546875 -8.953125 C 16.066406 -8.972656 15.472656 -9 14.765625 -9.03125 C 14.054688 -9.070312 13.132812 -9.09375 12 -9.09375 C 10.851562 -9.09375 9.925781 -9.070312 9.21875 -9.03125 C 8.519531 -9 7.929688 -8.972656 7.453125 -8.953125 Z M 7.453125 -8.953125 "/></g></g></g><g fill="#eadf87" fill-opacity="1"><g transform="translate(164.378419, 229.962172)"><g><path d="M 1.296875 0 L 1.203125 -1.703125 L 3.34375 -2.25 C 3.394531 -2.363281 3.4375 -2.660156 3.46875 -3.140625 C 3.5 -3.617188 3.523438 -4.238281 3.546875 -5 C 3.578125 -5.769531 3.59375 -6.609375 3.59375 -7.515625 L 3.59375 -12.515625 C 3.59375 -13.472656 3.578125 -14.332031 3.546875 -15.09375 C 3.523438 -15.851562 3.5 -16.476562 3.46875 -16.96875 C 3.4375 -17.457031 3.394531 -17.738281 3.34375 -17.8125 L 1.203125 -18.359375 L 1.296875 -20.0625 L 10.5 -20.0625 L 10.59375 -18.359375 L 8.40625 -17.8125 C 8.363281 -17.71875 8.320312 -17.425781 8.28125 -16.9375 C 8.25 -16.445312 8.226562 -15.816406 8.21875 -15.046875 C 8.207031 -14.285156 8.203125 -13.441406 8.203125 -12.515625 L 8.203125 -7.515625 C 8.203125 -6.628906 8.207031 -5.8125 8.21875 -5.0625 C 8.226562 -4.3125 8.25 -3.691406 8.28125 -3.203125 C 8.320312 -2.710938 8.363281 -2.394531 8.40625 -2.25 L 10.59375 -1.703125 L 10.5 0 Z M 5.9375 -21.796875 C 5.125 -21.796875 4.484375 -22.046875 4.015625 -22.546875 C 3.546875 -23.054688 3.3125 -23.628906 3.3125 -24.265625 C 3.3125 -24.921875 3.546875 -25.492188 4.015625 -25.984375 C 4.484375 -26.472656 5.125 -26.71875 5.9375 -26.71875 C 6.757812 -26.71875 7.394531 -26.472656 7.84375 -25.984375 C 8.289062 -25.492188 8.515625 -24.921875 8.515625 -24.265625 C 8.515625 -23.628906 8.289062 -23.054688 7.84375 -22.546875 C 7.394531 -22.046875 6.757812 -21.796875 5.9375 -21.796875 Z M 5.9375 -21.796875 "/></g></g></g><g fill="#eadf87" fill-opacity="1"><g transform="translate(176.167778, 229.962172)"><g><path d="M 17.0625 0.234375 C 16.46875 0.171875 15.828125 0.125 15.140625 0.09375 C 14.453125 0.0703125 13.796875 0.0507812 13.171875 0.03125 C 12.546875 0.0078125 12.050781 0 11.6875 0 L 1.328125 0 L 1.234375 -1.703125 L 3.421875 -2.25 C 3.460938 -2.363281 3.492188 -2.675781 3.515625 -3.1875 C 3.546875 -3.707031 3.570312 -4.347656 3.59375 -5.109375 C 3.613281 -5.867188 3.625 -6.671875 3.625 -7.515625 L 3.625 -12.515625 C 3.625 -13.398438 3.613281 -14.222656 3.59375 -14.984375 C 3.570312 -15.753906 3.546875 -16.390625 3.515625 -16.890625 C 3.492188 -17.390625 3.460938 -17.6875 3.421875 -17.78125 L 1.234375 -18.359375 L 1.328125 -20.0625 L 11.21875 -20.0625 L 11.3125 -18.28125 L 8.484375 -17.78125 C 8.453125 -17.707031 8.421875 -17.429688 8.390625 -16.953125 C 8.359375 -16.472656 8.328125 -15.851562 8.296875 -15.09375 C 8.273438 -14.332031 8.265625 -13.472656 8.265625 -12.515625 L 8.265625 -7.515625 C 8.265625 -6.191406 8.273438 -5.125 8.296875 -4.3125 C 8.328125 -3.507812 8.351562 -2.960938 8.375 -2.671875 C 8.757812 -2.597656 9.160156 -2.550781 9.578125 -2.53125 C 10.003906 -2.507812 10.515625 -2.5 11.109375 -2.5 L 12.40625 -2.5 C 12.882812 -2.5 13.320312 -2.519531 13.71875 -2.5625 C 14.125 -2.601562 14.453125 -2.648438 14.703125 -2.703125 L 16.609375 -6.421875 L 18.703125 -5.90625 Z M 17.0625 0.234375 "/></g></g></g><g fill="#eadf87" fill-opacity="1"><g transform="translate(194.996581, 229.962172)"><g><path d="M -0.03125 0 L -0.140625 -1.703125 L 1.640625 -2.25 L 8.578125 -19.078125 L 11.453125 -20.671875 L 19.3125 -2.25 L 21.09375 -1.703125 L 20.984375 0 L 11.828125 0 L 11.71875 -1.703125 L 13.90625 -2.25 L 12.0625 -6.671875 L 11.6875 -7.828125 L 8.265625 -15.890625 L 9.265625 -15.625 L 6.421875 -7.9375 L 6.125 -6.90625 L 4.484375 -2.25 L 6.671875 -1.703125 L 6.5625 0 Z M 5.296875 -5.8125 L 5.296875 -8.140625 C 5.753906 -8.109375 6.265625 -8.078125 6.828125 -8.046875 C 7.398438 -8.015625 8.164062 -8 9.125 -8 C 10.039062 -8 10.800781 -8.015625 11.40625 -8.046875 C 12.007812 -8.078125 12.523438 -8.109375 12.953125 -8.140625 L 12.953125 -5.84375 C 12.523438 -5.84375 12 -5.851562 11.375 -5.875 C 10.757812 -5.894531 10.007812 -5.90625 9.125 -5.90625 C 8.1875 -5.90625 7.421875 -5.894531 6.828125 -5.875 C 6.242188 -5.851562 5.734375 -5.832031 5.296875 -5.8125 Z M 5.296875 -5.8125 "/></g></g></g><g fill="#eadf87" fill-opacity="1"><g transform="translate(215.807363, 229.962172)"><g><path d="M 17.0625 0.234375 C 16.46875 0.171875 15.828125 0.125 15.140625 0.09375 C 14.453125 0.0703125 13.796875 0.0507812 13.171875 0.03125 C 12.546875 0.0078125 12.050781 0 11.6875 0 L 1.328125 0 L 1.234375 -1.703125 L 3.421875 -2.25 C 3.460938 -2.363281 3.492188 -2.675781 3.515625 -3.1875 C 3.546875 -3.707031 3.570312 -4.347656 3.59375 -5.109375 C 3.613281 -5.867188 3.625 -6.671875 3.625 -7.515625 L 3.625 -12.515625 C 3.625 -13.398438 3.613281 -14.222656 3.59375 -14.984375 C 3.570312 -15.753906 3.546875 -16.390625 3.515625 -16.890625 C 3.492188 -17.390625 3.460938 -17.6875 3.421875 -17.78125 L 1.234375 -18.359375 L 1.328125 -20.0625 L 11.21875 -20.0625 L 11.3125 -18.28125 L 8.484375 -17.78125 C 8.453125 -17.707031 8.421875 -17.429688 8.390625 -16.953125 C 8.359375 -16.472656 8.328125 -15.851562 8.296875 -15.09375 C 8.273438 -14.332031 8.265625 -13.472656 8.265625 -12.515625 L 8.265625 -7.515625 C 8.265625 -6.191406 8.273438 -5.125 8.296875 -4.3125 C 8.328125 -3.507812 8.351562 -2.960938 8.375 -2.671875 C 8.757812 -2.597656 9.160156 -2.550781 9.578125 -2.53125 C 10.003906 -2.507812 10.515625 -2.5 11.109375 -2.5 L 12.40625 -2.5 C 12.882812 -2.5 13.320312 -2.519531 13.71875 -2.5625 C 14.125 -2.601562 14.453125 -2.648438 14.703125 -2.703125 L 16.609375 -6.421875 L 18.703125 -5.90625 Z M 17.0625 0.234375 "/></g></g></g><g fill="#eadf87" fill-opacity="1"><g transform="translate(173.533734, 254.112214)"><g><path d="M 2.703125 -11.515625 L 7.859375 -11.515625 L 10.453125 -0.359375 L 11.4375 -0.359375 L 11.4375 0 L 6.484375 0 L 6.484375 -0.359375 L 7.484375 -0.359375 L 7.046875 -2.234375 L 3.78125 -2.234375 L 3.328125 -0.359375 L 4.359375 -0.359375 L 4.359375 0 L 0.140625 0 L 0.140625 -0.359375 L 1.171875 -0.359375 L 3.71875 -11.15625 L 2.703125 -11.15625 Z M 5.484375 -8.984375 L 5.375 -8.984375 L 4.265625 -4.3125 L 6.5625 -4.3125 Z M 5.484375 -8.984375 "/></g></g></g><g fill="#eadf87" fill-opacity="1"><g transform="translate(195.99493, 254.112214)"><g><path d="M 5.1875 -11.15625 L 4.171875 -11.15625 L 4.171875 -0.359375 L 5.1875 -0.359375 L 5.1875 0 L 0.28125 0 L 0.28125 -0.359375 L 1.296875 -0.359375 L 1.296875 -11.15625 L 0.28125 -11.15625 L 0.28125 -11.515625 L 5.1875 -11.515625 Z M 5.1875 -11.15625 "/></g></g></g></svg>